<svg width="40" height="40" viewBox="0 0 40 40" fill="none" xmlns="http://www.w3.org/2000/svg">
<path d="M36.985 0H30.4824V9.42249H39.9974V2.6569C40 2.6569 39.5272 0.256954 36.985 0Z" fill="#1967D2"/>
<path d="M30.4849 39.9562V39.9793V39.9999L39.9998 30.5774H39.9146L30.4849 39.9562Z" fill="#1967D2"/>
<path d="M39.999 30.577V30.4926L39.9146 30.577H39.999Z" fill="#FBBC05"/>
<path d="M39.9998 9.42273H30.4849V30.4929H39.9998V9.42273Z" fill="#FBBC05"/>
<path d="M39.9146 30.5774H30.4849V39.9562L39.9146 30.5774Z" fill="#EA4335"/>
<path d="M30.4849 30.577H39.9146L39.9998 30.4926H30.4849V30.577Z" fill="#EA4335"/>
<path d="M30.4619 39.9795H30.485V39.9564L30.4619 39.9795Z" fill="#34A853"/>
<path d="M9.30078 30.4926V39.9793H30.4621L30.4853 30.4926H9.30078Z" fill="#34A853"/>
<path d="M30.485 30.5773V30.4926L30.4619 39.9793L30.485 39.9562V30.5773Z" fill="#34A853"/>
<path d="M0 30.4926V37.0886C0.0852548 39.229 2.40005 39.9793 2.40005 39.9793H9.30052V30.4926H0Z" fill="#188038"/>
<path d="M9.30052 9.42262H30.485V0.00012207H2.66873C2.66873 0.00012207 0.17051 0.257076 0 2.91141V30.4928H9.30052V9.42262Z" fill="#4285F4"/>
<path d="M16.231 26.2278C15.7464 26.2278 15.279 26.1647 14.829 26.0385C14.3905 25.9122 13.9866 25.7228 13.6173 25.4703C13.248 25.2064 12.9192 24.8793 12.6307 24.489C12.3537 24.0988 12.1402 23.6454 11.9902 23.129L14.1193 22.2854C14.2693 22.8593 14.5232 23.2954 14.8809 23.5938C15.2386 23.8807 15.6887 24.0242 16.231 24.0242C16.4733 24.0242 16.7041 23.9898 16.9234 23.9209C17.1426 23.8406 17.333 23.7315 17.4946 23.5938C17.6561 23.4561 17.7831 23.2954 17.8754 23.1118C17.9793 22.9166 18.0312 22.6986 18.0312 22.4576C18.0312 21.9526 17.8408 21.5566 17.46 21.2697C17.0907 20.9827 16.5772 20.8393 15.9194 20.8393H14.8982V18.7906H15.8329C16.0637 18.7906 16.2887 18.7619 16.508 18.7045C16.7272 18.6471 16.9176 18.561 17.0792 18.4462C17.2523 18.32 17.385 18.1651 17.4773 17.9814C17.5811 17.7863 17.6331 17.5625 17.6331 17.31C17.6331 16.9198 17.4946 16.6041 17.2176 16.3631C16.9407 16.1106 16.5657 15.9844 16.0925 15.9844C15.5848 15.9844 15.1925 16.1221 14.9155 16.3976C14.6501 16.6615 14.4655 16.9599 14.3616 17.2928L12.2845 16.4492C12.3883 16.1623 12.5441 15.8696 12.7518 15.5712C12.9596 15.2613 13.2192 14.9858 13.5308 14.7448C13.8539 14.4923 14.2289 14.2915 14.6559 14.1423C15.0828 13.9816 15.5733 13.9012 16.1272 13.9012C16.6926 13.9012 17.2061 13.9816 17.6677 14.1423C18.1408 14.3029 18.5447 14.5268 18.8793 14.8137C19.214 15.0891 19.4736 15.422 19.6583 15.8122C19.8429 16.191 19.9352 16.6041 19.9352 17.0518C19.9352 17.3961 19.889 17.706 19.7967 17.9814C19.716 18.2569 19.6063 18.5036 19.4679 18.7217C19.3294 18.9398 19.1678 19.1291 18.9832 19.2898C18.8101 19.439 18.6312 19.5595 18.4466 19.6514V19.7891C19.0005 20.0072 19.4563 20.3572 19.814 20.8393C20.1833 21.3213 20.3679 21.9296 20.3679 22.6641C20.3679 23.1806 20.2699 23.6569 20.0737 24.0931C19.8775 24.5177 19.5948 24.8907 19.2255 25.2121C18.8678 25.5335 18.4351 25.7802 17.9273 25.9524C17.4196 26.136 16.8541 26.2278 16.231 26.2278Z" fill="#4285F4"/>
<path d="M24.5015 25.9524V16.8279L22.4071 17.706L21.5762 15.795L25.0554 14.1767H26.769V25.9524H24.5015Z" fill="#4285F4"/>
</svg>
