<svg width="106" height="106" viewBox="0 0 106 106" fill="none" xmlns="http://www.w3.org/2000/svg">
<g filter="url(#filter0_d_88_391)">
<path d="M0.5 37.3668C0.5 24.2989 0.5 17.7649 3.04318 12.7737C5.28023 8.38322 8.84977 4.81367 13.2402 2.57663C18.2315 0.0334473 24.7654 0.0334473 37.8333 0.0334473H68.1667C81.2346 0.0334473 87.7685 0.0334473 92.7598 2.57663C97.1502 4.81367 100.72 8.38322 102.957 12.7737C105.5 17.7649 105.5 24.2989 105.5 37.3668V67.7001C105.5 80.768 105.5 87.3019 102.957 92.2932C100.72 96.6837 97.1502 100.253 92.7598 102.49C87.7685 105.033 81.2346 105.033 68.1667 105.033H37.8333C24.7654 105.033 18.2315 105.033 13.2402 102.49C8.84977 100.253 5.28023 96.6837 3.04318 92.2932C0.5 87.3019 0.5 80.768 0.5 67.7001V37.3668Z" fill="white"/>
</g>
<defs>
<filter id="filter0_d_88_391" x="-3.5" y="0.0334473" width="113" height="113" filterUnits="userSpaceOnUse" color-interpolation-filters="sRGB">
<feFlood flood-opacity="0" result="BackgroundImageFix"/>
<feColorMatrix in="SourceAlpha" type="matrix" values="0 0 0 0 0 0 0 0 0 0 0 0 0 0 0 0 0 0 127 0" result="hardAlpha"/>
<feOffset dy="4"/>
<feGaussianBlur stdDeviation="2"/>
<feComposite in2="hardAlpha" operator="out"/>
<feColorMatrix type="matrix" values="0 0 0 0 0 0 0 0 0 0 0 0 0 0 0 0 0 0 0.25 0"/>
<feBlend mode="normal" in2="BackgroundImageFix" result="effect1_dropShadow_88_391"/>
<feBlend mode="normal" in="SourceGraphic" in2="effect1_dropShadow_88_391" result="shape"/>
</filter>
</defs>
</svg>
