<svg width="76" height="76" viewBox="0 0 76 76" fill="none" xmlns="http://www.w3.org/2000/svg">
<path d="M69.8469 0.0334473H57.6545V17.7006H75.4951V5.01514C75.4999 5.01514 74.6135 0.515236 69.8469 0.0334473Z" fill="#1967D2"/>
<path d="M57.6594 74.9513V74.9947V75.0332L75.5 57.366H75.3401L57.6594 74.9513Z" fill="#1967D2"/>
<path d="M75.4985 57.3654V57.207L75.3401 57.3654H75.4985Z" fill="#FBBC05"/>
<path d="M75.5 17.701H57.6594V57.2076H75.5V17.701Z" fill="#FBBC05"/>
<path d="M75.3401 57.366H57.6594V74.9513L75.3401 57.366Z" fill="#EA4335"/>
<path d="M57.6594 57.3654H75.3401L75.5 57.207H57.6594V57.3654Z" fill="#EA4335"/>
<path d="M57.616 74.9949H57.6592V74.9517L57.616 74.9949Z" fill="#34A853"/>
<path d="M17.9385 57.207V74.9947H57.6159L57.6595 57.207H17.9385Z" fill="#34A853"/>
<path d="M57.6592 57.366V57.207L57.616 74.9947L57.6592 74.9513V57.366Z" fill="#34A853"/>
<path d="M0.5 57.207V69.5745C0.659853 73.5878 5.00009 74.9947 5.00009 74.9947H17.9385V57.207H0.5Z" fill="#188038"/>
<path d="M17.9385 17.7011H57.6595V0.0338745H5.50388C5.50388 0.0338745 0.819705 0.515663 0.5 5.49254V57.2077H17.9385V17.7011Z" fill="#4285F4"/>
<path d="M30.9334 49.2106C30.0247 49.2106 29.1484 49.0922 28.3045 48.8555C27.4824 48.6188 26.7251 48.2637 26.0327 47.7902C25.3403 47.2953 24.7237 46.682 24.1828 45.9503C23.6635 45.2186 23.2632 44.3686 22.9819 43.4002L26.9739 41.8185C27.2552 42.8945 27.7312 43.7122 28.4019 44.2717C29.0726 44.8097 29.9165 45.0787 30.9334 45.0787C31.3878 45.0787 31.8205 45.0142 32.2316 44.8851C32.6427 44.7344 32.9997 44.53 33.3026 44.2717C33.6055 44.0135 33.8435 43.7122 34.0166 43.3679C34.2113 43.0021 34.3087 42.5932 34.3087 42.1413C34.3087 41.1944 33.9517 40.452 33.2377 39.914C32.5453 39.376 31.5825 39.107 30.3492 39.107H28.4344V35.2657H30.1869C30.6197 35.2657 31.0416 35.2119 31.4527 35.1043C31.8638 34.9967 32.2208 34.8353 32.5237 34.6201C32.8482 34.3834 33.0971 34.0928 33.2702 33.7485C33.4649 33.3827 33.5622 32.963 33.5622 32.4896C33.5622 31.7579 33.3026 31.1661 32.7833 30.7142C32.2641 30.2408 31.5609 30.0041 30.6738 30.0041C29.7217 30.0041 28.9861 30.2623 28.4668 30.7788C27.9692 31.2737 27.623 31.8333 27.4283 32.4573L23.5337 30.8756C23.7284 30.3376 24.0205 29.7889 24.41 29.2293C24.7994 28.6483 25.2862 28.1318 25.8704 27.6799C26.4763 27.2065 27.1794 26.8299 27.98 26.5501C28.7806 26.2488 29.7001 26.0982 30.7387 26.0982C31.7989 26.0982 32.7617 26.2488 33.6272 26.5501C34.5143 26.8514 35.2715 27.271 35.899 27.809C36.5265 28.3255 37.0133 28.9496 37.3595 29.6813C37.7057 30.3914 37.8788 31.1661 37.8788 32.0054C37.8788 32.651 37.7922 33.232 37.6191 33.7485C37.4677 34.265 37.2621 34.7277 37.0025 35.1366C36.7428 35.5454 36.4399 35.9005 36.0937 36.2018C35.7692 36.4815 35.4338 36.7075 35.0876 36.8797V37.1379C36.1262 37.5468 36.9808 38.2031 37.6516 39.107C38.3439 40.0108 38.6901 41.1514 38.6901 42.5286C38.6901 43.497 38.5062 44.3901 38.1384 45.2079C37.7706 46.0041 37.2405 46.7035 36.5481 47.306C35.8774 47.9086 35.066 48.3713 34.114 48.6941C33.162 49.0384 32.1018 49.2106 30.9334 49.2106Z" fill="#4285F4"/>
<path d="M46.4405 48.6941V31.5858L42.5135 33.232L40.9556 29.649L47.4791 26.6147H50.6921V48.6941H46.4405Z" fill="#4285F4"/>
</svg>
