<svg width="51" height="50" viewBox="0 0 51 50" fill="none" xmlns="http://www.w3.org/2000/svg">
<path d="M46.7313 0H38.603V11.7781H50.4967V3.32113C50.4999 3.32113 49.909 0.321192 46.7313 0Z" fill="#1967D2"/>
<path d="M38.6062 49.9452V49.9741V49.9998L50.4999 38.2217H50.3933L38.6062 49.9452Z" fill="#1967D2"/>
<path d="M50.4989 38.2213V38.1157L50.3933 38.2213H50.4989Z" fill="#FBBC05"/>
<path d="M50.4999 11.7783H38.6062V38.1161H50.4999V11.7783Z" fill="#FBBC05"/>
<path d="M50.3933 38.2217H38.6062V49.9452L50.3933 38.2217Z" fill="#EA4335"/>
<path d="M38.6062 38.2213H50.3933L50.4999 38.1157H38.6062V38.2213Z" fill="#EA4335"/>
<path d="M38.5771 49.9743H38.6059V49.9455L38.5771 49.9743Z" fill="#34A853"/>
<path d="M12.1257 38.1157V49.9741H38.5773L38.6064 38.1157H12.1257Z" fill="#34A853"/>
<path d="M38.6059 38.2217V38.1157L38.5771 49.9741L38.6059 49.9452V38.2217Z" fill="#34A853"/>
<path d="M0.5 38.1157V46.3607C0.606568 49.0363 3.50006 49.9741 3.50006 49.9741H12.1257V38.1157H0.5Z" fill="#188038"/>
<path d="M12.1257 11.7782H38.6063V0.000114441H3.83592C3.83592 0.000114441 0.713137 0.321307 0.5 3.63922V38.116H12.1257V11.7782Z" fill="#4285F4"/>
<path d="M20.789 32.7847C20.1832 32.7847 19.599 32.7058 19.0364 32.548C18.4883 32.3902 17.9835 32.1535 17.5219 31.8379C17.0603 31.5079 16.6492 31.099 16.2886 30.6112C15.9424 30.1235 15.6756 29.5568 15.488 28.9112L18.1493 27.8567C18.3369 28.574 18.6542 29.1192 19.1014 29.4922C19.5485 29.8509 20.1111 30.0302 20.789 30.0302C21.0919 30.0302 21.3804 29.9872 21.6545 29.9011C21.9285 29.8007 22.1665 29.6644 22.3685 29.4922C22.5704 29.32 22.7291 29.1192 22.8445 28.8896C22.9743 28.6458 23.0392 28.3732 23.0392 28.0719C23.0392 27.4406 22.8012 26.9457 22.3252 26.587C21.8636 26.2284 21.2217 26.049 20.3996 26.049H19.123V23.4882H20.2914C20.5799 23.4882 20.8611 23.4523 21.1352 23.3806C21.4093 23.3088 21.6473 23.2012 21.8492 23.0578C22.0656 22.8999 22.2315 22.7063 22.3468 22.4767C22.4767 22.2328 22.5416 21.9531 22.5416 21.6374C22.5416 21.1497 22.3685 20.7551 22.0223 20.4539C21.6761 20.1382 21.2073 19.9804 20.6159 19.9804C19.9812 19.9804 19.4908 20.1526 19.1446 20.4969C18.8129 20.8269 18.5821 21.1999 18.4523 21.6159L15.8559 20.5615C15.9857 20.2028 16.1804 19.837 16.44 19.4639C16.6997 19.0766 17.0242 18.7323 17.4137 18.431C17.8176 18.1154 18.2864 17.8643 18.8201 17.6778C19.3538 17.4769 19.9668 17.3765 20.6592 17.3765C21.366 17.3765 22.0079 17.4769 22.5849 17.6778C23.1763 17.8786 23.6811 18.1584 24.0994 18.5171C24.5177 18.8614 24.8423 19.2774 25.0731 19.7652C25.3039 20.2387 25.4193 20.7551 25.4193 21.3146C25.4193 21.745 25.3616 22.1324 25.2462 22.4767C25.1452 22.821 25.0082 23.1295 24.8351 23.4021C24.662 23.6747 24.46 23.9114 24.2292 24.1122C24.0129 24.2987 23.7893 24.4494 23.5585 24.5642V24.7363C24.2509 25.0089 24.8206 25.4465 25.2678 26.049C25.7294 26.6516 25.9602 27.4119 25.9602 28.3301C25.9602 28.9757 25.8376 29.5711 25.5923 30.1163C25.3471 30.6471 24.9937 31.1134 24.5321 31.5151C24.085 31.9168 23.5441 32.2252 22.9094 32.4404C22.2747 32.67 21.5679 32.7847 20.789 32.7847Z" fill="#4285F4"/>
<path d="M31.1271 32.4404V21.0349L28.5091 22.1324L27.4705 19.7437L31.8195 17.7208H33.9615V32.4404H31.1271Z" fill="#4285F4"/>
</svg>
