<svg width="24" height="24" viewBox="0 0 24 24" fill="none" xmlns="http://www.w3.org/2000/svg">
<path d="M21.2913 5.61183C20.7805 5.10083 20.1741 4.69547 19.5066 4.41891C18.8392 4.14235 18.1238 4 17.4013 4C16.6788 4 15.9634 4.14235 15.2959 4.41891C14.6285 4.69547 14.022 5.10083 13.5113 5.61183L12.4513 6.67183L11.3913 5.61183C10.3596 4.58013 8.96032 4.00053 7.50129 4.00053C6.04226 4.00053 4.64298 4.58013 3.61129 5.61183C2.5796 6.64352 2 8.04279 2 9.50183C2 10.9609 2.5796 12.3601 3.61129 13.3918L4.67129 14.4518L12.4513 22.2318L20.2313 14.4518L21.2913 13.3918C21.8023 12.8811 22.2076 12.2746 22.4842 11.6072C22.7608 10.9397 22.9031 10.2243 22.9031 9.50183C22.9031 8.77934 22.7608 8.06393 22.4842 7.39647C22.2076 6.72901 21.8023 6.12258 21.2913 5.61183V5.61183Z" stroke="#7F56D9" stroke-width="2" stroke-linecap="round" stroke-linejoin="round"/>
</svg>
