<svg width="24" height="25" viewBox="0 0 24 25" fill="none" xmlns="http://www.w3.org/2000/svg">
<path d="M21.2913 6.14527C20.7805 5.63428 20.1741 5.22892 19.5066 4.95236C18.8392 4.67579 18.1238 4.53345 17.4013 4.53345C16.6788 4.53345 15.9634 4.67579 15.2959 4.95236C14.6285 5.22892 14.022 5.63428 13.5113 6.14527L12.4513 7.20527L11.3913 6.14527C10.3596 5.11358 8.96032 4.53398 7.50129 4.53398C6.04226 4.53398 4.64298 5.11358 3.61129 6.14527C2.5796 7.17697 2 8.57624 2 10.0353C2 11.4943 2.5796 12.8936 3.61129 13.9253L4.67129 14.9853L12.4513 22.7653L20.2313 14.9853L21.2913 13.9253C21.8023 13.4145 22.2076 12.8081 22.4842 12.1406C22.7608 11.4732 22.9031 10.7578 22.9031 10.0353C22.9031 9.31279 22.7608 8.59738 22.4842 7.92992C22.2076 7.26246 21.8023 6.65603 21.2913 6.14527V6.14527Z" stroke="#7F56D9" stroke-width="2" stroke-linecap="round" stroke-linejoin="round"/>
</svg>
