<svg width="28" height="28" viewBox="0 0 28 28" fill="none" xmlns="http://www.w3.org/2000/svg">
<mask id="mask0_160_6239" style="mask-type:alpha" maskUnits="userSpaceOnUse" x="0" y="0" width="28" height="28">
<rect width="28" height="28" fill="#D9D9D9"/>
</mask>
<g mask="url(#mask0_160_6239)">
<path d="M12.3663 19.3667L20.5913 11.1417L18.958 9.50836L12.3663 16.1L9.04134 12.775L7.40801 14.4084L12.3663 19.3667ZM13.9997 25.6667C12.3858 25.6667 10.8691 25.3604 9.44968 24.7479C8.03023 24.1354 6.79551 23.3042 5.74551 22.2542C4.69551 21.2042 3.86426 19.9695 3.25176 18.55C2.63926 17.1306 2.33301 15.6139 2.33301 14C2.33301 12.3861 2.63926 10.8695 3.25176 9.45003C3.86426 8.03058 4.69551 6.79586 5.74551 5.74586C6.79551 4.69586 8.03023 3.86461 9.44968 3.25211C10.8691 2.63961 12.3858 2.33336 13.9997 2.33336C15.6136 2.33336 17.1302 2.63961 18.5497 3.25211C19.9691 3.86461 21.2038 4.69586 22.2538 5.74586C23.3038 6.79586 24.1351 8.03058 24.7476 9.45003C25.3601 10.8695 25.6663 12.3861 25.6663 14C25.6663 15.6139 25.3601 17.1306 24.7476 18.55C24.1351 19.9695 23.3038 21.2042 22.2538 22.2542C21.2038 23.3042 19.9691 24.1354 18.5497 24.7479C17.1302 25.3604 15.6136 25.6667 13.9997 25.6667ZM13.9997 23.3334C16.6052 23.3334 18.8122 22.4292 20.6205 20.6209C22.4288 18.8125 23.333 16.6056 23.333 14C23.333 11.3945 22.4288 9.18753 20.6205 7.37919C18.8122 5.57086 16.6052 4.66669 13.9997 4.66669C11.3941 4.66669 9.18718 5.57086 7.37884 7.37919C5.57051 9.18753 4.66634 11.3945 4.66634 14C4.66634 16.6056 5.57051 18.8125 7.37884 20.6209C9.18718 22.4292 11.3941 23.3334 13.9997 23.3334Z" fill="#175CD3"/>
</g>
</svg>
