<svg width="32" height="32" viewBox="0 0 32 32" fill="none" xmlns="http://www.w3.org/2000/svg">
<path d="M25.3066 22.6667H2.66663V25.3334H29.3333V22.6667H25.3066ZM28 21.3334C27.64 15.9067 23.6666 11.4667 18.4533 10.3867C18.6257 9.98065 18.695 9.53827 18.655 9.09896C18.6151 8.65965 18.467 8.23705 18.2242 7.8688C17.9813 7.50055 17.6511 7.19808 17.2631 6.98834C16.875 6.7786 16.4411 6.6681 16 6.66669C15.5588 6.6681 15.1249 6.7786 14.7368 6.98834C14.3488 7.19808 14.0186 7.50055 13.7757 7.8688C13.5329 8.23705 13.3849 8.65965 13.3449 9.09896C13.3049 9.53827 13.3742 9.98065 13.5466 10.3867C8.33329 11.4667 4.35996 15.9067 3.99996 21.3334H28ZM16 12.7734C19.9333 12.7734 23.2933 15.2134 24.6666 18.6534H7.33329C8.02408 16.9189 9.21918 15.4314 10.7642 14.3832C12.3091 13.335 14.133 12.7742 16 12.7734Z" fill="#6941C6"/>
</svg>
