<svg width="56" height="56" viewBox="0 0 56 56" fill="none" xmlns="http://www.w3.org/2000/svg">
<path d="M0 19.9111C0 12.9416 0 9.4568 1.35636 6.79479C2.54945 4.45321 4.45321 2.54945 6.79479 1.35636C9.4568 0 12.9416 0 19.9111 0H36.0889C43.0584 0 46.5432 0 49.2052 1.35636C51.5468 2.54945 53.4505 4.45321 54.6436 6.79479C56 9.4568 56 12.9416 56 19.9111V36.0889C56 43.0584 56 46.5432 54.6436 49.2052C53.4505 51.5468 51.5468 53.4505 49.2052 54.6436C46.5432 56 43.0584 56 36.0889 56H19.9111C12.9416 56 9.4568 56 6.79479 54.6436C4.45321 53.4505 2.54945 51.5468 1.35636 49.2052C0 46.5432 0 43.0584 0 36.0889V19.9111Z" fill="white"/>
</svg>
