<svg width="71" height="70" viewBox="0 0 71 70" fill="none" xmlns="http://www.w3.org/2000/svg">
<path d="M0.5 24.8889C0.5 16.177 0.5 11.821 2.19545 8.49348C3.68682 5.56652 6.06652 3.18682 8.99348 1.69545C12.321 0 16.677 0 25.3889 0H45.6111C54.323 0 58.679 0 62.0065 1.69545C64.9335 3.18682 67.3132 5.56652 68.8045 8.49348C70.5 11.821 70.5 16.177 70.5 24.8889V45.1111C70.5 53.823 70.5 58.179 68.8045 61.5065C67.3132 64.4335 64.9335 66.8132 62.0065 68.3045C58.679 70 54.323 70 45.6111 70H25.3889C16.677 70 12.321 70 8.99348 68.3045C6.06652 66.8132 3.68682 64.4335 2.19545 61.5065C0.5 58.179 0.5 53.823 0.5 45.1111V24.8889Z" fill="white"/>
</svg>
